<svg id="b0f5e556-2334-4898-9a57-96cd888f816e" data-name="Layer 1" xmlns="http://www.w3.org/2000/svg" viewBox="0 0 70.80263 31.02004"><defs><style>.a8af9291-da64-4b33-b108-5c2fdcb4b291{fill:#010101;}</style></defs><path class="a8af9291-da64-4b33-b108-5c2fdcb4b291" d="M-21.62978,78.65725A5.048,5.048,0,0,0-22.41,76.41209a2.7,2.7,0,0,0-1.01982-.92624,3.63546,3.63546,0,0,0-1.73471-.41484H-37.1032a1.19394,1.19394,0,0,0-1.17531.98278l-.11051.60441-.06643.36537a.98353.98353,0,0,0,.56033,1.07113l.31644.144a1.042,1.042,0,0,1,.56422,1.26406c-1.03971,3.27818-4.63264,14.5509-4.63264,14.5509a2.17554,2.17554,0,0,0,2.06769,2.94,2.67473,2.67473,0,0,0,1.59054-.54246,2.80092,2.80092,0,0,0,.99618-1.38461l1.51016-4.73644a5.288,5.288,0,0,0,3.56113,1.115,8.86814,8.86814,0,0,0,5.49824-1.80986,9.83956,9.83956,0,0,0,3.41881-4.91559l.99283-3.10573a10.33172,10.33172,0,0,0,.37336-1.80819A5.61462,5.61462,0,0,0-21.62978,78.65725Zm-5.18348,2.17151a4.32353,4.32353,0,0,1-.221.9359L-27.935,84.569a5.06411,5.06411,0,0,1-1.41307,2.23178,3.50927,3.50927,0,0,1-2.4444.87563,2.01091,2.01091,0,0,1-1.82326-.72494,2.14988,2.14988,0,0,1-.27122-1.4181,4.48781,4.48781,0,0,1,.08371-.51064l.1172-.36164,1.04808-3.22795.591-1.81991a1.38168,1.38168,0,0,1,1.31429-.956h1.82661q1.47919,0,1.82493.70988A2.63492,2.63492,0,0,1-26.81326,80.82876Z" transform="translate(92.40694 -65.97358)"/><path class="a8af9291-da64-4b33-b108-5c2fdcb4b291" d="M-41.01251,75.07152A1.20756,1.20756,0,0,1-39.86236,76.647h0l-.42024,1.31428-.75006,2.344-2.88975,9.03425a2.80826,2.80826,0,0,1-.99618,1.3846,2.68941,2.68941,0,0,1-1.58719.54078,2.17757,2.17757,0,0,1-2.06937-2.94165l2.945-9.21172q.03651-.123.06775-.23934a.74816.74816,0,0,0-.41667-.87361h0a.68349.68349,0,0,1-.39053-.74364l.08984-.49906.16541-.90926a.944.944,0,0,1,.92874-.775Z" transform="translate(92.40694 -65.97358)"/><path class="a8af9291-da64-4b33-b108-5c2fdcb4b291" d="M-74.36191,77.0672l.19977-1.1025a1.087,1.087,0,0,1,1.06957-.89318h2.41064a3.21514,3.21514,0,0,1,2.22674.601,2.55,2.55,0,0,1,.56925,2.02082l-.1038,4.40327-.16742,2.98519,1.85507-2.98519,3.69673-5.674a3.02349,3.02349,0,0,1,1.05645-.9878,2.8231,2.8231,0,0,1,1.36284-.36331,2.279,2.279,0,0,1,2.33223,2.27195l.08706,4.75319-.06362,2.86464,1.691-2.86464,3.82734-6.21146a2.46557,2.46557,0,0,1,.55585-.69481,1.9217,1.9217,0,0,1,.85554-.11887h1.96614a1.26577,1.26577,0,0,1,1.06894,1.94365l-7.8251,12.33937a4.172,4.172,0,0,1-1.46665,1.39464,3.86635,3.86635,0,0,1-1.90362.51567,3.147,3.147,0,0,1-3.21958-3.25474l.05525-3.68167.08706-1.96055-1.14351,1.96055L-66.38916,89.311a4.21217,4.21217,0,0,1-1.48338,1.42645,3.91455,3.91455,0,0,1-1.93543.52572,3.1756,3.1756,0,0,1-3.2514-3.23967l.01843-8.912-.005-.19086h0a.80508.80508,0,0,0-.47212-.701l-.31407-.14233A.92744.92744,0,0,1-74.36191,77.0672Z" transform="translate(92.40694 -65.97358)"/><path class="a8af9291-da64-4b33-b108-5c2fdcb4b291" d="M-75.79064,76.61451l-.009.02157a3.87052,3.87052,0,0,1-.57841.95552l-.25079.306A3.26819,3.26819,0,0,1-80.16321,79.001l-.02678-.01a7.80378,7.80378,0,0,0-2.55658-.48386q-1.78307,0-1.91868,1.29922a.65793.65793,0,0,0,.11886.452,1.31083,1.31083,0,0,0,.51567.39177c.24779.12055.48386.226.70487.31644s.53575.21095.94259.36164q.60776.226.98446.37671a7.21182,7.21182,0,0,1,2.53314,1.70438,3.30407,3.30407,0,0,1,.73835,2.69889,5.08209,5.08209,0,0,1-1.4181,3.13586,6.56654,6.56654,0,0,1-2.8211,1.71946,12.36144,12.36144,0,0,1-3.56448.48218,9.333,9.333,0,0,1-5.84816-1.701,1.82955,1.82955,0,0,1-.1557-2.61517l.06865-.08539a1.99612,1.99612,0,0,1,2.59676-.51734,8.27219,8.27219,0,0,0,1.12844.60608,7.22693,7.22693,0,0,0,2.99021.663q1.92622,0,2.06435-1.26574a.879.879,0,0,0-.149-.60272,1.745,1.745,0,0,0-.60775-.514,7.71117,7.71117,0,0,0-.83043-.40684q-.40685-.16575-1.07152-.42024-.668-.25866-1.1-.43865a6.14386,6.14386,0,0,1-2.23178-1.5537,3.05724,3.05724,0,0,1-.63286-2.42766,5.10871,5.10871,0,0,1,1.38628-3.1208,6.28026,6.28026,0,0,1,2.74242-1.68765h0a6.7831,6.7831,0,0,1,1.94984-.28629h6.81811A1.11122,1.11122,0,0,1-75.79064,76.61451Z" transform="translate(92.40694 -65.97358)"/><path class="a8af9291-da64-4b33-b108-5c2fdcb4b291" d="M-41.46946,72.23363a3.39987,3.39987,0,0,0,2.41026-.939,3.23168,3.23168,0,0,0,1.00157-2.47283,2.7492,2.7492,0,0,0-.82956-2.01883,2.74938,2.74938,0,0,0-2.01883-.82939,3.39839,3.39839,0,0,0-2.4101.939,3.2305,3.2305,0,0,0-1.00157,2.47265,2.74583,2.74583,0,0,0,.82939,2.01883A2.74564,2.74564,0,0,0-41.46946,72.23363Z" transform="translate(92.40694 -65.97358)"/></svg>