<svg width="114" height="50" viewBox="0 0 114 50" fill="none" xmlns="http://www.w3.org/2000/svg">
<g clip-path="url(#clip0)">
<path d="M113.958 20.4443C113.832 19.1551 113.402 17.9144 112.701 16.8254C112.292 16.194 111.726 15.6796 111.059 15.3325C110.198 14.8808 109.238 14.651 108.266 14.6638H89.0436C88.5927 14.6637 88.1561 14.8223 87.8101 15.1119C87.4642 15.4015 87.231 15.8036 87.1512 16.2479L86.9733 17.2221L86.8663 17.811C86.8033 18.1583 86.8578 18.5167 87.0212 18.8294C87.1846 19.1422 87.4476 19.3914 87.7685 19.5376L88.278 19.7697C88.6524 19.9391 88.9516 20.24 89.1191 20.6156C89.2865 20.9911 89.3105 21.4151 89.1865 21.8072C87.5124 27.0911 81.7274 45.2612 81.7274 45.2612C81.527 45.7957 81.4599 46.3711 81.5321 46.9375C81.6042 47.5039 81.8135 48.044 82.1416 48.511C82.4697 48.978 82.9067 49.3578 83.4147 49.6173C83.9227 49.8768 84.4864 50.0082 85.0566 50.0001C85.9819 49.9916 86.8799 49.685 87.6176 49.1257C88.371 48.5668 88.9317 47.7867 89.2215 46.8939L91.6531 39.2594C93.2827 40.5361 95.3209 41.175 97.3869 41.0566C100.581 41.1029 103.698 40.0757 106.24 38.1394C108.852 36.1349 110.776 33.3656 111.744 30.2161L113.343 25.2101C113.63 24.2585 113.831 23.2831 113.944 22.2956C114.012 21.6806 114.016 21.0602 113.958 20.4443V20.4443ZM105.612 23.9445C105.549 24.459 105.43 24.965 105.256 25.453L103.805 29.9732C103.378 31.3527 102.593 32.5941 101.53 33.5706C100.447 34.5275 99.0384 35.0325 97.5945 34.9819C97.0462 35.0544 96.4885 34.985 95.9746 34.7805C95.4607 34.5759 95.0077 34.243 94.6588 33.8134C94.2544 33.1247 94.1001 32.3172 94.2221 31.5277C94.2512 31.2509 94.2962 30.9761 94.3569 30.7046L94.5456 30.1217L96.2331 24.9187L97.1847 21.9852C97.3295 21.5375 97.6123 21.1472 97.9925 20.8703C98.3727 20.5935 98.8307 20.4443 99.3009 20.4443H102.242C103.83 20.4443 104.809 20.8257 105.18 21.5885C105.547 22.3161 105.697 23.134 105.612 23.9445V23.9445Z" fill="black"/>
<path d="M82.7513 14.6646C83.0574 14.6646 83.3591 14.737 83.632 14.8758C83.9049 15.0146 84.1412 15.2159 84.3217 15.4634C84.5021 15.7109 84.6217 15.9975 84.6706 16.3C84.7195 16.6025 84.6964 16.9122 84.6032 17.2041L83.9265 19.3225L82.7189 23.1007L78.066 37.6627C77.7755 38.5551 77.2149 39.335 76.4621 39.8944C75.7248 40.4502 74.8294 40.7556 73.9065 40.7661C73.336 40.7741 72.7721 40.6425 72.2639 40.3828C71.7556 40.1232 71.3184 39.7432 70.99 39.276C70.6617 38.8088 70.4523 38.2684 70.3799 37.7018C70.3075 37.1352 70.3743 36.5595 70.5746 36.0246L75.3164 21.1766C75.3556 21.0444 75.3919 20.9158 75.4255 20.7908C75.4984 20.5146 75.471 20.2214 75.3481 19.9635C75.2253 19.7056 75.0149 19.4998 74.7546 19.3826V19.3826C74.5315 19.2814 74.3485 19.1085 74.2346 18.8914C74.1207 18.6743 74.0824 18.4254 74.1258 18.184L74.2704 17.3796L74.5368 15.914C74.6005 15.5634 74.7851 15.2464 75.0583 15.0181C75.3316 14.7898 75.6762 14.6648 76.0321 14.6648L82.7513 14.6646Z" fill="black"/>
<path d="M29.0552 17.8814L29.3768 16.1043C29.4499 15.7004 29.6624 15.335 29.9771 15.0719C30.2919 14.8088 30.6889 14.6646 31.099 14.6646H34.9803C36.254 14.5325 37.5313 14.8777 38.5656 15.6333C38.9406 16.0801 39.2163 16.6015 39.3743 17.1632C39.5324 17.7248 39.5691 18.3137 39.4822 18.8906L39.3151 25.9881L39.0455 30.7998L42.0324 25.9881L47.9845 16.8424C48.4145 16.1817 48.9982 15.6353 49.6855 15.2502C50.3557 14.8723 51.1107 14.6708 51.8798 14.6646C52.3679 14.6532 52.8534 14.7394 53.3078 14.9181C53.7622 15.0969 54.1763 15.3647 54.5261 15.7057C54.8758 16.0468 55.154 16.4543 55.3444 16.9043C55.5348 17.3543 55.6336 17.8379 55.635 18.3267L55.7752 25.9881L55.6727 30.6055L58.3954 25.9881L64.5579 15.9761C64.7859 15.5516 65.0891 15.1721 65.4528 14.8562C65.8915 14.6885 66.3626 14.623 66.8304 14.6646H69.9961C70.361 14.6646 70.7192 14.7627 71.0333 14.9486C71.3475 15.1346 71.606 15.4015 71.7818 15.7216C71.9577 16.0418 72.0445 16.4033 72.0331 16.7684C72.0217 17.1336 71.9126 17.489 71.7172 17.7975L59.1179 37.6868C58.527 38.6188 57.716 39.3909 56.7564 39.9348C55.8237 40.4725 54.7677 40.7588 53.6914 40.766C53.0014 40.7823 52.3153 40.6574 51.6752 40.3988C51.0351 40.1402 50.4546 39.7534 49.9692 39.2622C49.4838 38.7709 49.1037 38.1856 48.8524 37.5421C48.601 36.8985 48.4837 36.2104 48.5075 35.5198L48.5965 29.5855L48.7366 26.4253L46.8955 29.5855L41.8922 37.6167C41.2982 38.569 40.4776 39.359 39.5038 39.9159C38.5561 40.4645 37.4822 40.7565 36.3875 40.7633C35.6971 40.78 35.0105 40.6564 34.369 40.4001C33.7276 40.1438 33.1447 39.7601 32.6555 39.2721C32.1662 38.7841 31.7808 38.202 31.5225 37.5608C31.2642 36.9196 31.1383 36.2326 31.1524 35.5414L31.1821 21.1765L31.174 20.8689C31.1644 20.6285 31.0882 20.3955 30.954 20.196C30.8197 19.9965 30.6327 19.8382 30.4139 19.739L29.9082 19.5095C29.6051 19.3721 29.3566 19.1372 29.2021 18.8422C29.0476 18.5473 28.9959 18.2091 29.0552 17.8814Z" fill="black"/>
<path d="M26.7537 17.1517L26.7392 17.1865C26.5048 17.7422 26.191 18.261 25.8079 18.7266L25.4041 19.2199C24.7465 20.0577 23.8505 20.6762 22.8346 20.9937C21.8186 21.3112 20.7303 21.3129 19.7133 20.9984L19.6702 20.9823C18.3514 20.4935 16.9599 20.2299 15.5539 20.2024C13.6399 20.2024 12.6101 20.9004 12.4646 22.2965C12.4371 22.5546 12.5052 22.8139 12.6559 23.0251C12.8756 23.3018 13.1611 23.5189 13.4862 23.6566C13.8852 23.8509 14.2653 24.0208 14.6211 24.1666C14.977 24.3124 15.4838 24.5066 16.1388 24.7495C16.7912 24.9924 17.3195 25.1948 17.7239 25.3567C19.2637 25.9706 20.6544 26.9073 21.8025 28.104C22.3066 28.6978 22.6742 29.3952 22.8797 30.1469C23.0851 30.8985 23.1232 31.6862 22.9914 32.4542C22.8406 34.3536 22.0332 36.141 20.7081 37.5088C19.4547 38.805 17.8911 39.7591 16.1658 40.2803C14.3008 40.8181 12.3673 41.0799 10.4266 41.0575C7.0699 41.2234 3.75455 40.258 1.0104 38.3157C0.713138 38.0582 0.470369 37.7438 0.296392 37.3909C0.122415 37.038 0.020758 36.6538 -0.00260464 36.261C-0.0259673 35.8681 0.029435 35.4746 0.160357 35.1036C0.291279 34.7325 0.495063 34.3914 0.759701 34.1004L0.870234 33.9628C1.34498 33.3363 2.03245 32.9056 2.80279 32.752C3.57313 32.5983 4.37299 32.7324 5.05131 33.1289C5.63081 33.5011 6.23827 33.8277 6.86822 34.1058C8.37838 34.8023 10.0201 35.1667 11.6828 35.1745C13.7504 35.1745 14.8583 34.4944 15.0066 33.1343C15.0474 32.792 14.9621 32.4466 14.7667 32.1628C14.5086 31.8148 14.1737 31.5313 13.7882 31.3343C13.356 31.0891 12.9095 30.8701 12.4511 30.6785C12.0144 30.5004 11.4393 30.2746 10.7258 30.0012C10.0088 29.7232 9.41841 29.4875 8.9547 29.2941C7.58507 28.7385 6.3572 27.8828 5.36129 26.7898C4.92464 26.2468 4.60803 25.6172 4.43238 24.9427C4.25673 24.2682 4.22604 23.564 4.34232 22.8767C4.48794 20.9933 5.27601 19.2172 6.57437 17.8464C7.78507 16.5709 9.30697 15.6333 10.99 15.1262V15.1262C12.0084 14.8202 13.0661 14.6647 14.1294 14.6647H25.1073C25.4023 14.6651 25.6927 14.7385 25.9525 14.8784C26.2123 15.0182 26.4335 15.2202 26.5964 15.4664C26.7594 15.7126 26.859 15.9952 26.8864 16.2893C26.9139 16.5833 26.8683 16.8796 26.7537 17.1517V17.1517Z" fill="black"/>
<path d="M82.0161 10.0903C83.4583 10.1174 84.853 9.57348 85.8969 8.5768C86.4336 8.06563 86.8551 7.44562 87.1332 6.75824C87.4113 6.07086 87.5396 5.33195 87.5095 4.59094C87.5206 3.98598 87.4078 3.38517 87.178 2.82552C86.9483 2.26587 86.6066 1.75925 86.1738 1.33686C85.7518 0.9037 85.2458 0.56162 84.6867 0.331702C84.1277 0.101785 83.5275 -0.0111019 82.9233 9.46385e-07C81.481 -0.0272621 80.0864 0.5167 79.0427 1.51354C78.5059 2.0246 78.0844 2.64454 77.8063 3.33189C77.5282 4.01924 77.3999 4.75813 77.4301 5.49911C77.4187 6.10409 77.5313 6.70498 77.761 7.26468C77.9907 7.82437 78.3326 8.33097 78.7655 8.75318C79.1872 9.18669 79.6933 9.52902 80.2524 9.75901C80.8115 9.989 81.4117 10.1018 82.0161 10.0903V10.0903Z" fill="black"/>
</g>
<defs>
<clipPath id="clip0">
<rect width="114" height="50" fill="white"/>
</clipPath>
</defs>
</svg>
